<svg width="19" height="19" viewBox="0 0 19 19" fill="none" xmlns="http://www.w3.org/2000/svg">
<path d="M2.17785 11.5522L8.27144 17.8489C8.59893 18.1873 8.76267 18.3565 8.96814 18.3565C9.17361 18.3565 9.33735 18.1873 9.66484 17.8489L16.0504 11.2504C18.3845 8.83851 18.8668 5.14637 17.2819 2.18778C17.2399 2.10946 17.1888 2.03486 17.1308 1.96761L16.7436 1.51927C14.6957 -0.851878 10.8812 -0.367499 9.44027 2.41449C9.24323 2.79492 8.69608 2.80076 8.49903 2.42033C7.08224 -0.314978 3.3092 -0.664409 1.41416 1.76418L1.17647 2.06879C-0.708349 5.0845 -0.295259 8.99661 2.17785 11.5522Z" fill="#215667"/>
</svg>
