<svg width="22" height="22" viewBox="0 0 22 22" fill="none" xmlns="http://www.w3.org/2000/svg">
<path d="M0 19.4857V8.17143C0 7.77333 0.0976247 7.39619 0.292875 7.04C0.488125 6.68381 0.757167 6.39047 1.1 6.16L9.35 0.502857C9.83125 0.167619 10.3812 0 11 0C11.6187 0 12.1687 0.167619 12.65 0.502857L20.9 6.16C21.2437 6.39047 21.5132 6.68381 21.7085 7.04C21.9037 7.39619 22.0009 7.77333 22 8.17143V19.4857C22 20.1771 21.7305 20.7693 21.1915 21.2621C20.6525 21.7549 20.0053 22.0008 19.25 22H15.125C14.7354 22 14.4091 21.8793 14.146 21.6379C13.8829 21.3966 13.7509 21.0982 13.75 20.7429V14.4571C13.75 14.1009 13.618 13.8026 13.354 13.5621C13.09 13.3215 12.7637 13.2008 12.375 13.2H9.625C9.23541 13.2 8.90908 13.3207 8.646 13.5621C8.38291 13.8034 8.25091 14.1018 8.25 14.4571V20.7429C8.25 21.099 8.118 21.3978 7.854 21.6392C7.59 21.8806 7.26366 22.0008 6.875 22H2.75C1.99375 22 1.34658 21.754 0.8085 21.2621C0.270416 20.7701 0.000916666 20.178 0 19.4857Z" fill="#215667"/>
</svg>
