<svg width="22" height="22" viewBox="0 0 22 22" fill="none" xmlns="http://www.w3.org/2000/svg">
<path d="M7.0125 15.675L12.5675 14.08C12.9342 13.97 13.2506 13.7819 13.5168 13.5157C13.783 13.2495 13.9707 12.9334 14.08 12.5675L15.675 7.0125C15.73 6.81083 15.6798 6.6319 15.5243 6.4757C15.3688 6.3195 15.1899 6.26926 14.9875 6.325L9.4325 7.92C9.06583 8.03 8.74976 8.2181 8.4843 8.4843C8.21883 8.7505 8.03073 9.06656 7.92 9.4325L6.325 14.9875C6.27 15.1892 6.3206 15.3681 6.4768 15.5243C6.633 15.6805 6.81156 15.7307 7.0125 15.675ZM11 12.65C10.5417 12.65 10.1523 12.4898 9.83179 12.1693C9.51133 11.8488 9.35073 11.4591 9.35 11C9.34926 10.5409 9.50986 10.1515 9.83179 9.8318C10.1537 9.51206 10.5431 9.35146 11 9.35C11.4569 9.34853 11.8466 9.50913 12.1693 9.8318C12.492 10.1545 12.6522 10.5439 12.65 11C12.6478 11.4561 12.4876 11.8459 12.1693 12.1693C11.851 12.4927 11.4613 12.6529 11 12.65ZM11 22C9.47833 22 8.04833 21.7111 6.71 21.1332C5.37167 20.5553 4.2075 19.7718 3.2175 18.7825C2.2275 17.7932 1.44393 16.6291 0.866801 15.29C0.289668 13.9509 0.000734725 12.5209 1.3924e-06 11C-0.00073194 9.47906 0.288201 8.04906 0.866801 6.71C1.4454 5.37093 2.22897 4.20677 3.2175 3.2175C4.20603 2.22823 5.3702 1.44467 6.71 0.8668C8.0498 0.288933 9.4798 0 11 0C12.5202 0 13.9502 0.288933 15.29 0.8668C16.6298 1.44467 17.794 2.22823 18.7825 3.2175C19.771 4.20677 20.555 5.37093 21.1343 6.71C21.7136 8.04906 22.0022 9.47906 22 11C21.9978 12.5209 21.7089 13.9509 21.1332 15.29C20.5575 16.6291 19.774 17.7932 18.7825 18.7825C17.791 19.7718 16.6269 20.5557 15.29 21.1343C13.9531 21.7129 12.5231 22.0015 11 22Z" fill="#215667"/>
</svg>
