<svg width="22" height="22" viewBox="0 0 22 22" fill="none" xmlns="http://www.w3.org/2000/svg">
<path d="M11 1C12.3897 1 13.6841 1.26357 14.8936 1.78516C16.1223 2.3151 17.18 3.02893 18.0752 3.9248C18.9708 4.82109 19.6853 5.87898 20.2168 7.10742C20.7393 8.31523 21.002 9.60937 21 10.999C20.9979 12.3905 20.7347 13.6863 20.2148 14.8955C19.6874 16.1223 18.9738 17.1786 18.0762 18.0742C17.1772 18.9712 16.1188 19.6861 14.8926 20.2168C13.6872 20.7384 12.3934 21.0013 11.001 21H11C9.60857 21 8.31413 20.7363 7.10645 20.2148C5.87921 19.6849 4.82177 18.9714 3.9248 18.0752C3.0282 17.1793 2.31428 16.1221 1.78516 14.8945C1.26421 13.6858 1.00073 12.3908 1 11C0.99933 9.60971 1.26304 8.31478 1.78516 7.10645C2.31586 5.87832 3.02942 4.82092 3.9248 3.9248C4.82002 3.02893 5.87775 2.3151 7.10645 1.78516C8.31585 1.26358 9.6103 1 11 1ZM16.0781 5.63281C15.7017 5.33699 15.2212 5.22281 14.7217 5.36035L14.7119 5.36426L9.15625 6.95898L9.14551 6.96191C8.62291 7.11869 8.16123 7.39239 7.77637 7.77832C7.39298 8.16277 7.12036 8.62236 6.96289 9.14258L6.95898 9.15625L5.36426 14.7119H5.36328L5.36035 14.7246C5.20462 15.2959 5.37737 15.8392 5.76953 16.2314C6.16185 16.6238 6.7066 16.7973 7.2793 16.6387H7.28027L7.28809 16.6357L12.8438 15.041L12.8545 15.0381C13.3769 14.8814 13.8384 14.6079 14.2236 14.2227C14.6089 13.8374 14.8821 13.376 15.0381 12.8535L15.041 12.8438L16.6357 7.28809H16.6367L16.6396 7.27539C16.7754 6.77723 16.6616 6.29972 16.3691 5.9248L16.2334 5.77051L16.0781 5.63281ZM11.0029 10.3496C11.1938 10.349 11.3278 10.405 11.4619 10.5391C11.5959 10.6731 11.6513 10.806 11.6504 10.9951C11.6494 11.1919 11.5911 11.3314 11.457 11.4678C11.3319 11.5949 11.2027 11.6515 11.0068 11.6504H11C10.8035 11.6504 10.6696 11.5925 10.5391 11.4619C10.4085 11.3313 10.3499 11.1963 10.3496 10.998C10.3494 10.8026 10.4062 10.6701 10.5361 10.541C10.67 10.4081 10.8071 10.3503 11.0029 10.3496Z" stroke="#A4A6A6" stroke-width="2"/>
</svg>
