<svg width="21" height="21" viewBox="0 0 21 21" fill="none" xmlns="http://www.w3.org/2000/svg">
<path d="M3.17785 12.5527L9.27144 18.8494C9.59893 19.1878 9.76267 19.357 9.96814 19.357C10.1736 19.357 10.3374 19.1878 10.6648 18.8494L17.0504 12.251C19.3845 9.83906 19.8668 6.14692 18.2819 3.18833C18.2399 3.11001 18.1888 3.03541 18.1308 2.96816L17.7436 2.51982C15.6957 0.148671 11.8812 0.633051 10.4403 3.41504C10.2432 3.79547 9.69608 3.80131 9.49903 3.42088C8.08224 0.685571 4.3092 0.33614 2.41416 2.76473L2.17647 3.06934C0.291651 6.08505 0.704741 9.99716 3.17785 12.5527Z" stroke="#A4A6A6" stroke-width="2"/>
</svg>
