<svg width="22" height="22" viewBox="0 0 22 22" fill="none" xmlns="http://www.w3.org/2000/svg">
<path d="M9.91504 1.32715H9.91602L9.92188 1.32324C10.2258 1.11157 10.5739 1 11 1C11.4261 1 11.7742 1.11157 12.0781 1.32324L12.084 1.32715L20.334 6.98438L20.3428 6.99023C20.556 7.13317 20.7154 7.30765 20.832 7.52051C20.9478 7.73175 21.0005 7.94329 21 8.16895V19.4854C21 19.8787 20.8615 20.209 20.5166 20.5244C20.1691 20.842 19.7655 21.0006 19.251 21H15.125C14.9612 21 14.8833 20.9573 14.8223 20.9014C14.7784 20.8611 14.7595 20.8324 14.7529 20.7891L14.75 20.7402V14.457C14.75 13.8187 14.4986 13.2527 14.0273 12.8232C13.5629 12.4 12.9902 12.2015 12.377 12.2002H9.625C9.00988 12.2002 8.43477 12.3985 7.96973 12.8252C7.56048 13.2007 7.31811 13.6797 7.2627 14.2197L7.25 14.4541V20.7432C7.24996 20.8169 7.23728 20.8487 7.17969 20.9014C7.11726 20.9584 7.03872 21.0003 6.87695 21H2.75C2.23338 21 1.82968 20.8409 1.4834 20.5244C1.18277 20.2496 1.03854 19.9623 1.00684 19.6299L1 19.4844V8.17188C1 7.94534 1.05372 7.73249 1.16992 7.52051C1.28694 7.3071 1.44581 7.13302 1.6582 6.99023L1.66602 6.98438L9.91504 1.32715Z" stroke="#A4A6A6" stroke-width="2" stroke-linejoin="round"/>
</svg>
