<svg width="20" height="20" viewBox="0 0 20 20" fill="none" xmlns="http://www.w3.org/2000/svg">
<mask id="path-1-inside-1_2011_26" fill="white">
<path fill-rule="evenodd" clip-rule="evenodd" d="M9.9995 0C7.96131 0 6.00659 0.759549 4.56537 2.11156C3.12415 3.46356 2.31448 5.29728 2.31448 7.2093V7.86419C2.31442 8.51246 2.10982 9.14621 1.72645 9.68558L0.589068 11.2884C-0.733748 13.1488 0.275717 15.6772 2.57527 16.2651C3.32428 16.4567 4.07923 16.6189 4.84013 16.7516L4.84211 16.7563C5.60367 18.6651 7.64144 20 9.9995 20C12.3576 20 14.3953 18.6651 15.1579 16.7563L15.1599 16.7516C15.9215 16.6181 16.6771 16.4558 17.4247 16.2651C19.7243 15.6772 20.7337 13.1488 19.4109 11.2884L18.2726 9.68558C17.8892 9.14621 17.6846 8.51246 17.6845 7.86419V7.2093C17.6845 5.29728 16.8749 3.46356 15.4336 2.11156C13.9924 0.759549 12.0377 0 9.9995 0ZM13.3472 17.0112C11.123 17.2601 8.87506 17.2601 6.65082 17.0112C7.35586 17.9609 8.58249 18.6047 9.9995 18.6047C11.4165 18.6047 12.6422 17.9609 13.3472 17.0112ZM3.8019 7.2093C3.8019 5.66735 4.45486 4.18854 5.61714 3.09822C6.77941 2.00789 8.3558 1.39535 9.9995 1.39535C11.6432 1.39535 13.2196 2.00789 14.3819 3.09822C15.5441 4.18854 16.1971 5.66735 16.1971 7.2093V7.86419C16.1971 8.78791 16.4886 9.69116 17.035 10.4595L18.1734 12.0623C18.3498 12.3101 18.4608 12.5938 18.4974 12.8898C18.5339 13.1858 18.4948 13.4857 18.3834 13.7648C18.272 14.0438 18.0915 14.2941 17.8567 14.4948C17.6219 14.6955 17.3396 14.8409 17.033 14.9191C12.4278 16.0973 7.57024 16.0973 2.96498 14.9191C2.65861 14.8408 2.37644 14.6954 2.14176 14.4948C1.90708 14.2941 1.72661 14.044 1.61523 13.7651C1.50384 13.4862 1.46474 13.1864 1.50115 12.8905C1.53756 12.5946 1.64843 12.3111 1.82462 12.0633L2.96498 10.4595C3.5109 9.69087 3.80211 8.78783 3.8019 7.86419V7.2093Z"/>
</mask>
<path d="M9.9995 0V-2V0ZM2.31448 7.2093H0.31448H2.31448ZM2.31448 7.86419L4.31448 7.86437V7.86419H2.31448ZM1.72645 9.68558L0.0962751 8.52691L0.0953984 8.52814L1.72645 9.68558ZM0.589068 11.2884L2.21905 12.4473L2.22012 12.4458L0.589068 11.2884ZM2.57527 16.2651L3.071 14.3275L3.07066 14.3274L2.57527 16.2651ZM4.84013 16.7516L6.67994 15.9674L6.25395 14.968L5.18377 14.7814L4.84013 16.7516ZM4.84211 16.7563L6.69972 16.0152L6.69108 15.9935L6.68193 15.972L4.84211 16.7563ZM15.1579 16.7563L13.3182 15.9717L13.3092 15.9929L13.3006 16.0143L15.1579 16.7563ZM15.1599 16.7516L14.8146 14.7817L13.7459 14.969L13.3202 15.967L15.1599 16.7516ZM17.4247 16.2651L17.9191 18.2031L17.9201 18.2028L17.4247 16.2651ZM19.4109 11.2884L17.7804 12.4465L17.7809 12.4473L19.4109 11.2884ZM18.2726 9.68558L19.9031 8.52747L19.9027 8.52691L18.2726 9.68558ZM17.6845 7.86419H15.6845V7.86437L17.6845 7.86419ZM13.3472 17.0112L14.9531 18.2033L17.693 14.5123L13.1247 15.0236L13.3472 17.0112ZM6.65082 17.0112L6.87328 15.0236L2.30498 14.5123L5.04492 18.2033L6.65082 17.0112ZM9.9995 1.39535V-0.604651V1.39535ZM16.1971 7.2093H14.1971H16.1971ZM17.035 10.4595L18.6656 9.30142L18.6649 9.30051L17.035 10.4595ZM18.1734 12.0623L16.5428 13.2204L16.544 13.2221L18.1734 12.0623ZM17.033 14.9191L16.5388 12.9811L16.5373 12.9815L17.033 14.9191ZM2.96498 14.9191L3.46069 12.9815L3.45974 12.9812L2.96498 14.9191ZM1.82462 12.0633L0.19468 10.9043L0.194647 10.9043L1.82462 12.0633ZM2.96498 10.4595L4.59492 11.6185L4.59557 11.6176L2.96498 10.4595ZM3.8019 7.86419H1.8019L1.8019 7.86463L3.8019 7.86419ZM9.9995 0V-2C7.47065 -2 5.02169 -1.05879 3.19703 0.652916L4.56537 2.11156L5.93372 3.5702C6.9915 2.57789 8.45197 2 9.9995 2V0ZM4.56537 2.11156L3.19703 0.652916C1.36804 2.36869 0.31448 4.72411 0.31448 7.2093H2.31448H4.31448C4.31448 5.87045 4.88026 4.55844 5.93372 3.5702L4.56537 2.11156ZM2.31448 7.2093H0.31448V7.86419H2.31448H4.31448V7.2093H2.31448ZM2.31448 7.86419L0.31448 7.86401C0.31446 8.08796 0.244451 8.31843 0.0962755 8.52691L1.72645 9.68558L3.35663 10.8443C3.97518 9.97399 4.31438 8.93696 4.31448 7.86437L2.31448 7.86419ZM1.72645 9.68558L0.0953984 8.52814L-1.04199 10.1309L0.589068 11.2884L2.22012 12.4458L3.3575 10.843L1.72645 9.68558ZM0.589068 11.2884L-1.04092 10.1294C-3.25458 13.2428 -1.44832 17.3008 2.07989 18.2028L2.57527 16.2651L3.07066 14.3274C1.99975 14.0536 1.78709 13.0549 2.21905 12.4473L0.589068 11.2884ZM2.57527 16.2651L2.07955 18.2027C2.87876 18.4072 3.68444 18.5802 4.49648 18.7219L4.84013 16.7516L5.18377 14.7814C4.47401 14.6576 3.76979 14.5063 3.071 14.3275L2.57527 16.2651ZM4.84013 16.7516L3.00031 17.5359L3.00229 17.5405L4.84211 16.7563L6.68193 15.972L6.67994 15.9674L4.84013 16.7516ZM4.84211 16.7563L2.98449 17.4974C4.08308 20.251 6.91797 22 9.9995 22V20V18C8.36492 18 7.12427 17.0793 6.69972 16.0152L4.84211 16.7563ZM9.9995 20V22C13.0813 22 15.9155 20.2509 17.0152 17.4982L15.1579 16.7563L13.3006 16.0143C12.8751 17.0794 11.6339 18 9.9995 18V20ZM15.1579 16.7563L16.9976 17.5409L16.9996 17.5362L15.1599 16.7516L13.3202 15.967L13.3182 15.9717L15.1579 16.7563ZM15.1599 16.7516L15.5051 18.7216C16.3167 18.5794 17.1221 18.4064 17.9191 18.2031L17.4247 16.2651L16.9304 14.3272C16.2321 14.5053 15.5263 14.6569 14.8146 14.7817L15.1599 16.7516ZM17.4247 16.2651L17.9201 18.2028C21.4483 17.3008 23.2546 13.2428 21.0409 10.1294L19.4109 11.2884L17.7809 12.4473C18.2129 13.0549 18.0002 14.0537 16.9293 14.3274L17.4247 16.2651ZM19.4109 11.2884L21.0415 10.1303L19.9031 8.52747L18.2726 9.68558L16.642 10.8437L17.7804 12.4465L19.4109 11.2884ZM18.2726 9.68558L19.9027 8.52691C19.7546 8.31843 19.6845 8.08796 19.6845 7.86401L17.6845 7.86419L15.6845 7.86437C15.6846 8.93696 16.0238 9.97399 16.6424 10.8443L18.2726 9.68558ZM17.6845 7.86419H19.6845V7.2093H17.6845H15.6845V7.86419H17.6845ZM17.6845 7.2093H19.6845C19.6845 4.72411 18.631 2.36869 16.802 0.652916L15.4336 2.11156L14.0653 3.5702C15.1187 4.55844 15.6845 5.87045 15.6845 7.2093H17.6845ZM15.4336 2.11156L16.802 0.652916C14.9773 -1.05879 12.5284 -2 9.9995 -2V0V2C11.547 2 13.0075 2.57789 14.0653 3.5702L15.4336 2.11156ZM13.3472 17.0112L13.1247 15.0236C11.0483 15.256 8.94967 15.256 6.87328 15.0236L6.65082 17.0112L6.42835 18.9988C8.80044 19.2643 11.1976 19.2643 13.5697 18.9988L13.3472 17.0112ZM6.65082 17.0112L5.04492 18.2033C6.14717 19.6881 7.98368 20.6047 9.9995 20.6047V18.6047V16.6047C9.18129 16.6047 8.56454 16.2337 8.25671 15.8191L6.65082 17.0112ZM9.9995 18.6047V20.6047C12.0158 20.6047 13.8511 19.6877 14.9531 18.2033L13.3472 17.0112L11.7413 15.8191C11.4332 16.2341 10.8172 16.6047 9.9995 16.6047V18.6047ZM3.8019 7.2093H5.8019C5.8019 6.24051 6.21098 5.28342 6.98549 4.55686L5.61714 3.09822L4.24879 1.63958C2.69875 3.09367 1.8019 5.09418 1.8019 7.2093H3.8019ZM5.61714 3.09822L6.98549 4.55686C7.76432 3.82623 8.84646 3.39535 9.9995 3.39535V1.39535V-0.604651C7.86514 -0.604651 5.79451 0.189546 4.24879 1.63958L5.61714 3.09822ZM9.9995 1.39535V3.39535C11.1526 3.39535 12.2347 3.82623 13.0135 4.55686L14.3819 3.09822L15.7502 1.63958C14.2045 0.189546 12.1339 -0.604651 9.9995 -0.604651V1.39535ZM14.3819 3.09822L13.0135 4.55686C13.788 5.28342 14.1971 6.24052 14.1971 7.2093H16.1971H18.1971C18.1971 5.09418 17.3003 3.09367 15.7502 1.63958L14.3819 3.09822ZM16.1971 7.2093H14.1971V7.86419H16.1971H18.1971V7.2093H16.1971ZM16.1971 7.86419H14.1971C14.1971 9.21222 14.6232 10.519 15.4051 11.6186L17.035 10.4595L18.6649 9.30051C18.3541 8.86333 18.1971 8.36359 18.1971 7.86419H16.1971ZM17.035 10.4595L15.4044 11.6176L16.5428 13.2204L18.1734 12.0623L19.804 10.9042L18.6656 9.30142L17.035 10.4595ZM18.1734 12.0623L16.544 13.2221C16.5317 13.2049 16.5174 13.1752 16.5124 13.1347L18.4974 12.8898L20.4823 12.6449C20.4043 12.0123 20.1679 11.4154 19.8028 10.9025L18.1734 12.0623ZM18.4974 12.8898L16.5124 13.1347C16.5074 13.0938 16.5135 13.0546 16.5259 13.0233L18.3834 13.7648L20.2409 14.5062C20.4762 13.9168 20.5604 13.2778 20.4823 12.6449L18.4974 12.8898ZM18.3834 13.7648L16.5259 13.0233C16.5381 12.9928 16.5528 12.9782 16.5572 12.9745L17.8567 14.4948L19.1562 16.015C19.6302 15.6099 20.0059 15.0949 20.2409 14.5062L18.3834 13.7648ZM17.8567 14.4948L16.5572 12.9745C16.5593 12.9727 16.5591 12.9732 16.5558 12.9749C16.5525 12.9766 16.5469 12.979 16.5388 12.9811L17.033 14.9191L17.5273 16.857C18.1233 16.705 18.6828 16.4197 19.1562 16.015L17.8567 14.4948ZM17.033 14.9191L16.5373 12.9815C12.2573 14.0765 7.74071 14.0765 3.46069 12.9815L2.96498 14.9191L2.46927 16.8567C7.39976 18.1181 12.5983 18.1181 17.5288 16.8567L17.033 14.9191ZM2.96498 14.9191L3.45974 12.9812C3.45168 12.9792 3.44603 12.9768 3.44275 12.9751C3.43947 12.9734 3.43929 12.9728 3.44142 12.9746L2.14176 14.4948L0.842109 16.0149C1.31531 16.4195 1.87451 16.7048 2.47022 16.8569L2.96498 14.9191ZM2.14176 14.4948L3.44142 12.9746C3.4458 12.9784 3.46044 12.9929 3.47262 13.0234L1.61523 13.7651L-0.242168 14.5068C-0.00721891 15.0952 0.368364 15.6099 0.842109 16.0149L2.14176 14.4948ZM1.61523 13.7651L3.47262 13.0234C3.48511 13.0547 3.49121 13.0939 3.48618 13.1347L1.50115 12.8905L-0.483879 12.6463C-0.561719 13.2789 -0.477424 13.9176 -0.242168 14.5068L1.61523 13.7651ZM1.50115 12.8905L3.48618 13.1347C3.4812 13.1753 3.46689 13.2049 3.4546 13.2222L1.82462 12.0633L0.194647 10.9043C-0.170029 11.4172 -0.406079 12.0139 -0.483879 12.6463L1.50115 12.8905ZM1.82462 12.0633L3.45456 13.2223L4.59492 11.6185L2.96498 10.4595L1.33504 9.30053L0.19468 10.9043L1.82462 12.0633ZM2.96498 10.4595L4.59557 11.6176C5.37655 10.518 5.8022 9.21167 5.8019 7.86375L3.8019 7.86419L1.8019 7.86463C1.80201 8.364 1.64525 8.86375 1.33439 9.30145L2.96498 10.4595ZM3.8019 7.86419H5.8019V7.2093H3.8019H1.8019V7.86419H3.8019Z" fill="#FCFEFF" mask="url(#path-1-inside-1_2011_26)"/>
</svg>
